<?xml version="1.0" encoding="UTF-8"?><svg id="Layer_2" xmlns="http://www.w3.org/2000/svg" viewBox="0 0 284.35 285.44"><defs><style>.cls-1{fill:#f4f4f1;}.cls-2{fill:#fae2cf;}.cls-3{fill:#3f5c7c;}.cls-4{fill:#25527a;}</style></defs><g id="Layer_1-2"><g><rect class="cls-1" x="2.58" y="2.01" width="279.49" height="279.49"/><g><path class="cls-4" d="M183.95,18.63c.12,.18,.22,.48,.37,.51,2.3,.54,4.48,1.33,6.42,2.74,1.22,.88,2.57,1.57,3.76,2.48,1.4,1.08,2.96,2,3.71,3.78,.21,.5,.95,.76,1.32,1.22,.87,1.09,1.76,2.2,2.48,3.39,.89,1.48,1.51,3.14,2.47,4.57,.72,1.08,1.2,2.15,1.32,3.42,.08,.86,.3,1.71,.38,2.58,.12,1.38,.1,2.78,.28,4.15,.23,1.71,.15,3.29-.68,4.87-.54,1.02-.74,2.21-1.16,3.29-.2,.53-.54,1.02-.84,1.51-.12,.2-.42,.37-.42,.54,.04,2.16-1.97,3.2-2.66,4.94-.03,.07-.06,.18-.11,.2-1.5,.53-2.03,2.05-3.08,3.02-.4,.37-1,.53-1.52,.76-1.41,.64-2.48,1.82-4.18,2.06-1.75,.25-3.39,1.2-5.13,1.62-2.76,.66-5.54,1.41-8.44,.84-1.1-.22-2.33-.15-3.3-.62-.87-.41-1.78-.31-2.6-.66-.98-.42-1.94-.9-2.87-1.42-2.14-1.21-4.27-2.43-6.37-3.71-.37-.23-.57-.73-.86-1.1-.78-1.02-1.63-2.01-2.33-3.09-.48-.74-.79-1.59-1.09-2.43-.19-.55,1.16-1.8,1.82-1.7,1.63,.27,3.24,.7,4.88,.83,.9,.07,1.99,.82,2.78-.33,.07,.06,.14,.12,.22,.17,.19,.11,.39,.3,.56,.28,1.57-.2,3.15-.35,4.7-.68,.92-.2,1.77-.71,2.67-1.03,.29-.11,.66,0,.95-.11,.6-.23,1.3-.42,1.72-.85,.81-.84,1.39-1.73,2.72-2.12,.94-.27,1.64-1.55,2.33-2.46,.99-1.32,1.86-2.72,2.8-4.08,.46-.66,.62-1.53,.65-2.58,0-.35,.46-.71,.75-1.03,.5-.55,.69-1.1,.66-1.91-.07-1.55,.15-3.12,.25-4.68,.02-.33,.02-.66-.02-.99-.09-.76-.39-1.53-.29-2.26,.24-1.79-.49-3.22-1.38-4.65-.42-.67-.59-1.5-1.05-2.13-.54-.73-1.41-1.24-1.9-1.99-.72-1.1-2.02-2.01-1.55-3.62,.16-.54,.44-1.04,.66-1.56,.08,0,.16,0,.24,0Zm17.99,22.58c.08-1.6-.59-2.91-1.53-4.12-.32-.41-.56-.89-.84-1.33-.57-.87-1.11-1.76-1.72-2.6-.89-1.21-1.81-2.4-2.76-3.56-.28-.34-.65-.62-1.01-.87-.66-.46-1.35-.86-2.01-1.32-.22-.15-.39-.39-.58-.59,.03,.33,0,.67,.1,.98,.37,1.16,1.01,2.28,1.13,3.46,.21,2.06,.24,4.16,.13,6.23-.11,1.94,.26,3.95-.76,5.8-.36,.65-.34,1.5-.68,2.16-.6,1.16-1.3,2.28-2.06,3.34-1.31,1.84-2.58,3.73-4.08,5.42-.85,.96-2.13,1.54-3.18,2.33-.5,.38-.87,.97-1.41,1.28-.7,.4-1.51,.62-2.27,.91-.92,.36-1.83,.73-2.76,1.05-.48,.17-1,.22-1.5,.33-1.22,.29-2.44,.61-3.67,.85-.31,.06-.68-.2-1-.17-.44,.04-.92,.4-1.3,.3-.72-.19-1.39-.48-2.12-.06-.28,.16-.55,.33-.82,.49,.24,.29,.44,.63,.74,.85,.32,.24,.75,.33,1.09,.54,1.62,.98,3.13,2.24,4.87,2.89,2.39,.9,4.93,1.57,7.46,1.9,1.63,.21,3.4-.21,5.02-.67,1.85-.52,3.94-.31,5.52-1.71,.06-.05,.14-.11,.21-.1,1.04,.11,1.95-.19,2.81-.79,.88-.62,1.93-1.04,2.67-1.78,1.23-1.23,2.27-2.64,3.37-3.99,.44-.54,1.22-1.16,1.17-1.68-.09-.84,.37-1.2,.73-1.72,.19-.27,.3-.61,.41-.93,.27-.77,.39-1.62,.8-2.32,1.24-2.13,.78-4.45,.86-6.7,.02-.63-.14-1.28-.3-1.9-.19-.75-.47-1.47-.71-2.21Z"/><path class="cls-4" d="M62.87,97.75c.34-.14,.85-.19,.99-.44,.5-.91,1.33-.57,2.04-.7,.59-.11,1.17-.33,1.77-.42,.54-.08,1.11,.04,1.65-.07,1.4-.26,2.78-.61,4.18-.9,.33-.07,.74-.14,1.02-.01,.8,.37,1.49,.4,2.34,.04,.62-.26,1.52-.34,2.11-.09,1.34,.56,2.61,.07,3.91,.09,.08,0,.16-.07,.23-.06,1.86,.37,3.71,.83,5.59,1.1,1.8,.25,3.46,.99,5.23,1.35,1.64,.32,3.27,.67,4.81,1.46,1.16,.6,2.56,.73,3.84,1.11,.86,.26,1.61,.93,2.6,.56,.15-.06,.34-.05,.45-.15,.96-.88,2.09-1.38,3.37-1.62,.39-.07,.72-.76,1.15-.04,.02,.03,.28-.07,.42-.13,.79-.33,1.56-.76,2.38-.99,.8-.23,1.65-.25,2.48-.39,.99-.16,1.97-.49,2.95-.51,2.25-.04,4.44-1.11,6.75-.35,.45,.15,1.01-.09,1.52-.09,2.39,0,4.78-.09,7.15,.09,1.3,.1,2.57,.67,3.86,1.03,.07,.02,.14,.1,.21,.11,1.65,.29,3.32,.48,4.93,.89,1.07,.27,2.05,.86,3.09,1.28,.86,.35,1.73,.69,2.61,.99,.18,.06,.52,.06,.61-.05,1-1.35,2.55-1.7,3.99-2.24,.17-.06,.28-.29,.45-.36,.53-.22,1.07-.41,1.61-.58,.97-.3,1.93-.64,2.92-.85,1.7-.36,3.42-.66,5.14-.94,1.56-.26,3.13-.53,4.71-.69,1.39-.14,2.8-.12,4.2-.22,1.87-.14,3.72,.15,5.58,.24,.9,.04,1.79-.28,2.69,.29,.29,.18,1.18-.45,1.36-.27,1.03,1.04,2.7,.08,3.65,1.25,.09,.11,.52-.12,.74-.04,1.37,.49,2.73,1.03,4.1,1.52,.51,.18,1.05,.41,1.58,.41,1.31-.01,2.24,.73,3.25,1.38,.59,.38,1.29,.62,1.94,.91,.07,.03,.17-.03,.23,0,1.24,.79,2.45,1.61,3.71,2.37,.7,.43,1.43,.82,2.19,1.13,1.59,.67,2.9,1.58,4.01,2.98,.98,1.23,2.45,2.07,3.66,3.13,.65,.57,1.25,1.23,1.81,1.89,.97,1.16,1.92,2.34,2.83,3.54,.57,.75,.89,1.78,1.61,2.31,1.42,1.06,1.43,2.98,2.86,4.09,.91,.71,1.19,2.22,1.76,3.37,.12,.24,.24,.47,.4,.68,1.55,1.96,2.16,4.38,3,6.65,.57,1.52,.65,3.21,.95,4.83,.28,1.49,.17,3.23,.92,4.42,1.02,1.61,.43,3.37,1.14,4.96,.39,.86,.13,2.02,.15,3.04,0,.24-.09,.53,.01,.71,.86,1.59,.28,3.34,.61,5,.33,1.64,.51,3.33,.35,5.04-.11,1.12-.03,2.29,.19,3.39,.19,.93-.55,2.03,.48,2.8-.93,.54,.04,2.03-1.43,2.49-1.46,.45-2.57,.07-2.62-1.42-.09-2.96-.09-5.93-.27-8.89-.08-1.29-.58-2.56-.77-3.85-.09-.62,.17-1.3,.12-1.93-.05-.61-.36-1.19-.47-1.8-.08-.42,.07-.88,0-1.3-.25-1.29-.87-2.6-.74-3.83,.12-1.13,.15-2.15-.14-3.22-.43-1.55-.88-3.09-1.23-4.65-.15-.71,.02-1.48-.11-2.2-.07-.41-.45-.76-.67-1.15-.37-.68-.87-1.2-.79-2.18,.08-.95-.37-2.02-.82-2.92-.79-1.55-1.99-2.92-2.6-4.53-.56-1.46-1.93-2.34-2.27-3.94-.18-.86-1.08-1.57-1.65-2.35-.51-.72-1.01-1.45-1.51-2.18-.69-1-1.3-2.06-2.09-2.97-.57-.64-1.41-1.03-2.09-1.59-1.27-1.04-2.74-1.93-3.67-3.22-.81-1.11-2.38-.95-2.91-2.22-1.83-.02-2.64-1.85-4.18-2.39-.3-.1-.59-.22-.88-.36-.74-.34-1.48-.7-2.22-1.05-.53-.25-1.07-.49-1.61-.71-.81-.34-1.61-.71-2.45-.98-1.19-.38-2.41-.66-3.59-1.03-.76-.24-1.46-.66-2.23-.83-1.24-.28-2.5-.48-3.76-.59-1.8-.16-3.62-.21-5.43-.32-.94-.06-1.89-.23-2.82-.18-1.99,.1-3.98,.22-5.95,.5-1.84,.26-3.65,.97-5.49,1.03-1.34,.05-2.44,.41-3.59,.94-.53,.25-1.19,.19-1.75,.38-.72,.24-1.42,.57-2.1,.92-.04,.02,.07,.65,.25,.75,.58,.32,1.21,.67,1.85,.73,1.39,.14,1.89,1.37,2.83,2.04,.09,.06,.13,.25,.21,.27,2.08,.33,2.95,2.42,4.69,3.27,.47,.23,.55,1.16,1.01,1.51,1.53,1.16,2.39,2.77,3.39,4.32,1.23,1.9,2.63,3.76,4.26,5.32,.75,.72,.84,1.45,1.2,2.21,.45,.95,1.23,1.74,1.7,2.68,.69,1.41,1.8,2.62,1.79,4.37,0,.79,.42,1.71,.93,2.36,.75,.95,.7,2.08,1.04,3.11,.37,1.14,.63,2.32,1.11,3.4,.4,.91,.97,1.69,.31,2.73-.09,.13,.43,.58,.55,.93,.3,.88,.58,1.78,.77,2.69,.32,1.54,.68,3.09,.8,4.66,.14,1.87-.02,3.77,.07,5.65,.03,.69,.46,1.35,.62,2.05,.12,.54,.2,1.13,.14,1.68-.11,1.23-.66,2.41,.2,3.66,.29,.43-.2,1.33-.08,1.96,.26,1.37,.44,2.68-.24,4-.31,.59-.58,.77-1.25,.56-1.7-.54-2.05-1.14-2.13-3.02-.08-1.93-.65-3.88-.48-5.78,.16-1.91-.68-3.57-.73-5.38-.09-2.72-.16-5.44-.64-8.12-.39-2.18-.79-4.35-1.21-6.52-.07-.35-.17-.7-.34-1.01-.75-1.41-1.25-2.86-1.28-4.49-.01-.6-.26-1.4-.69-1.74-.99-.79-.96-1.9-1.27-2.92-.45-1.5-1.19-2.83-2.3-3.99-.49-.51-.54-1.42-.91-2.08-.37-.67-.93-1.23-1.35-1.87-.83-1.23-1.59-2.5-2.44-3.71-.57-.81-1.26-1.54-1.89-2.31-.81-.98-1.67-1.93-2.4-2.97-.58-.84-1.22-1.52-2.2-1.88-.27-.1-.49-.35-.71-.55-1.2-1.04-2.39-2.08-3.59-3.12-.08-.07-.21-.12-.32-.13-1.8-.14-2.85-1.75-4.47-2.28-1.24-.41-2.42-1.53-3.6-1.5-1.52,.04-2.21-1.14-3.39-1.44-.11-.03-.21-.14-.32-.16-1.9-.38-3.8-.7-5.69-1.14-1.5-.35-2.97-.83-4.45-1.26-.18-.05-.38-.19-.54-.16-3.46,.67-6.96-.24-10.42,.27-1.1,.16-2.19,.33-3.28,.48-1.58,.22-3.19,.31-4.74,.66-1.15,.26-2.23,.85-3.35,1.28-.2,.08-.41,.11-.62,.16-.28,.07-.57,.14-.85,.22,.2,.13,.4,.25,.59,.39,1.24,.97,2.47,1.94,3.7,2.91,.08,.06,.28,.11,.29,.1,.59-1.22,.99,.04,1.22,.21,1.38,.96,2.72,2.01,3.99,3.12,.6,.53,.99,1.29,1.53,1.9,.58,.66,1.23,1.25,1.83,1.89,.73,.78,1.54,1.51,2.15,2.37,.67,.95,1.03,2.08,2.13,2.76,.45,.28,.61,1.02,.9,1.55,.27,.48,.51,1,.84,1.43,1.14,1.47,1.68,3.15,2.08,4.95,.21,.96,.95,1.81,1.39,2.73,.31,.64,.52,1.33,.76,2,.09,.25,.12,.53,.26,.76,.33,.55,.91,.84,.72,1.79-.14,.7,.55,1.63,1,2.38,.5,.83,.69,1.69,.74,2.65,.04,.69,.34,1.37,.54,2.04,.45,1.47,.97,2.93,1.35,4.42,.24,.93,.27,1.92,.45,2.87,.04,.2,.39,.34,.45,.55,.34,1.15,.23,2.36,.93,3.49,.36,.57-.16,1.63-.11,2.46,.1,1.66,.39,3.3,.48,4.96,.05,.87-.18,1.76-.21,2.64-.01,.34,.29,.68,.28,1.02-.07,2.48-.09,4.96-.36,7.42-.05,.48-1.09,.86-1.68,1.28-.35-.59-1.33-.46-1.39-1.52-.04-.86-.2-1.73-.27-2.61-.11-1.46-.2-2.93-.38-4.4-.09-.76,.03-1.55,0-2.32-.07-2.33-.13-4.67-.27-7-.06-1.02-.25-2.05-.48-3.05-.09-.38-.55-.67-.64-1.05-.15-.65-.07-1.35-.21-2-.35-1.61-.71-3.23-1.18-4.8-.41-1.38-.98-2.71-1.49-4.05-.04-.11-.2-.18-.21-.28-.2-2.22-1.15-4.17-1.99-6.21-.6-1.46-1.22-2.87-2-4.25-.31-.56-.32-1.32-.36-2-.08-1.08-.65-1.84-1.38-2.57-.25-.25-.27-.72-.48-1.04-1.03-1.57-2.04-3.15-3.15-4.66-.62-.84-1.41-1.54-2.14-2.29-.38-.39-.83-.71-1.19-1.11-.62-.69-1.2-1.42-1.8-2.13-.73-.85-1.54-1.57-2.73-1.7-.1-.01-.13-.38-.27-.49-.49-.39-.96-.9-1.52-1.06-.89-.26-1.24-1.09-1.91-1.51-1.1-.7-2.36-1.17-3.53-1.77-1.19-.62-2.31-1.39-3.55-1.91-.97-.41-2.07-.53-3.11-.78-.13-.03-.3-.04-.39-.12-1.19-1.21-2.86-1.28-4.33-1.8-.68-.24-1.51-.04-2.21-.24-1.35-.39-2.62-1.03-3.98-1.35-1.11-.26-2.29-.21-3.44-.3-.3-.02-.67,.07-.89-.07-1.21-.74-2.54-.56-3.81-.43-.64,.07-1.17,.04-1.79-.12-.61-.16-1.31-.11-1.94-.02-2.06,.29-4.11,.66-6.17,.95-.41,.06-.86-.22-1.27-.18-1.43,.17-2.85,.33-4.12,1.15-.38,.24-.99,.1-1.44,.26-1.97,.68-3.98,1.31-5.88,2.17-.97,.44-1.71,1.35-2.59,2-1.01,.74-1.87,1.65-3.07,2.21-.88,.41-1.71,.4-2.19-.05-.75-.71-.39-1.71,.4-2.45,.64-.59,1.1-1.35,1.69-1.99,.3-.33,.7-.58,1.09-.81,.38-.22,.88-.27,1.18-.55,1.75-1.66,3.91-2.44,6.17-3.06,.59-.16,1.14-.47,1.7-.71,.27-.11,.53-.23,.8-.34,.04,.09,.08,.18,.11,.27Z"/><path class="cls-4" d="M267.62,186.05c-.21,1.27-.34,2.53-.63,3.75-.33,1.36-1.4,2.5-1.14,4.08,.08,.47-.27,1.01-.44,1.51-.48,1.39-.85,2.82-1.48,4.14-.74,1.55-1.71,2.98-2.55,4.48-.23,.41-.92,.74-.33,1.37,.05,.05,.02,.27-.04,.33-2.09,2.08-2.74,5.04-4.52,7.36-1.18,1.54-2.69,2.81-3.67,4.41-1.65,2.7-4.2,4.45-6.24,6.73-1.43,1.6-3.34,2.76-4.98,4.18-1.28,1.11-2.47,2.34-3.74,3.45-.6,.53-1.33,.91-1.98,1.37-1.2,.85-2.35,1.76-3.58,2.55-1.06,.67-2.21,1.19-3.32,1.78-.78,.41-1.57,.82-2.36,1.23-.99,.52-1.97,1.06-2.98,1.55-1.36,.66-2.87,1.05-3.87,2.35-.23,.29-.86,.25-1.3,.4-1.76,.62-3.51,1.27-5.28,1.89-.72,.25-1.77-.02-1.79,1.24,0,0-.27,.01-.42,.02-2.16,.09-4.04,.93-5.8,2.13-.19,.13-.45,.14-.67,.22-1.48,.52-2.96,1.05-4.45,1.55-.49,.16-1.02,.22-1.53,.32-.28,.06-.56,.15-.85,.19-.36,.05-.61,1.02-1.1,.14-.02-.03-.21,.02-.3,.06-1.02,.52-2.02,1.1-3.07,1.55-.3,.13-.79-.21-1.14-.13-1.71,.36-3.4,.8-5.09,1.2-.22,.05-.46,.05-.68,.03-1.46-.12-2.51,.94-3.79,1.29-.72,.19-1.52,.05-2.26,.18-3.22,.55-6.43,1.08-9.72,.85-.55-.04-1.12,.53-1.71,.72-.97,.32-1.99,.86-2.94,.76-1.39-.15-2.61,.05-3.91,.44-.42,.13-1.15,.54-1.85-.1-.35-.32-1.34,.07-2.04,.12-1.19,.09-2.38,.19-3.57,.26-.37,.02-.77-.13-1.11-.05-.67,.16-1.36,.71-1.97,.61-1.11-.17-2.12,.27-3.18,.24-1.29-.03-2.58,0-3.87-.01-.7,0-1.41-.02-2.11-.02-1.29,0-2.57,.03-3.86,0-2.93-.08-5.85-.21-8.78-.27-1.75-.03-3.5,.04-5.25,.04-.18,0-.34-.29-.54-.38-.32-.14-.66-.32-1-.34-1.42-.08-2.83-.1-4.25-.14-.43-.01-.87-.07-1.3-.03-1.84,.17-3.59,0-5.38-.62-.82-.29-1.86-.94-2.92-.25-.14,.09-1.17,.49-1.2-.53,0-.05-.19-.11-.3-.13-.93-.15-1.88-.25-2.8-.45-1.86-.4-3.71-.86-5.57-1.27-.83-.18-1.69-.25-2.53-.43-.45-.1-.89-.29-1.3-.5-1.03-.55-2.07-.75-3.28-.81-1.25-.07-2.44-.92-3.69-1.31-.93-.29-1.93-.38-2.89-.57-.9-.18-1.75-.47-2.39-1.18-.05-.05-.14-.12-.19-.11-.88,.19-1.5-.48-2.18-.64-.86-.2-1.63-.59-2.45-.83-2.11-.61-4.15-1.37-6.01-2.57-.1-.06-.19-.18-.3-.19-2.01-.22-3.42-1.73-5.23-2.42-3.93-1.5-7.25-4.13-10.84-6.24-2.46-1.45-4.93-2.89-7.32-4.46-1.45-.96-2.71-2.21-4.11-3.25-.83-.61-1.82-1.01-2.66-1.61-.57-.4-.98-1.01-1.5-1.5-.74-.69-1.53-1.34-2.26-2.03-1.61-1.52-3.47-2.79-4.54-4.83-.38-.73-.95-1.47-1.63-1.91-1.57-1.01-2.15-2.72-3.19-4.09-.97-1.27-1.53-2.92-2.67-3.98-.9-.84-1.18-1.91-1.82-2.82-.66-.94-.99-2.1-1.54-3.12-.36-.67-.9-1.23-1.27-1.89-.55-.98-1-2.01-1.51-3.01-.8-1.59-1.61-3.17-2.41-4.76-.03-.06-.15-.1-.16-.16-.19-1.46-.5-2.91-.52-4.37-.01-.83,.26-1.8,.76-2.44,.29-.36,1.36-.38,1.93-.17,.91,.34,1.62,1.01,.94,2.21-.14,.25,.19,.74,.21,1.12,.13,2.21,.69,4.23,1.96,6.12,1.01,1.49,1.61,3.25,2.42,4.88,.87,1.75,1.71,3.51,2.67,5.2,.81,1.42,1.75,2.77,2.69,4.11,1.23,1.73,2.38,3.55,3.8,5.1,2.56,2.79,4.82,5.88,7.95,8.12,.66,.47,1.35,.91,2,1.4,.8,.6,1.54,1.27,2.34,1.87,1.57,1.16,3.12,2.36,4.76,3.41,1.81,1.17,3.74,2.16,5.58,3.28,1.73,1.05,3.38,2.24,5.14,3.23,1.79,1,3.69,1.8,5.53,2.72,1.71,.85,3.37,1.8,5.09,2.61,1.07,.51,2.39,.64,3.29,1.33,1.05,.81,2.48,.61,3.26,1.27,.85,.71,1.68,.6,2.5,.89,1.65,.59,3.24,1.36,4.87,2,.4,.16,.92,0,1.33,.13,1.3,.42,2.57,.94,3.87,1.36,.8,.26,1.65,.38,2.46,.6,1.03,.29,2.05,.64,3.08,.95,.44,.13,.9,.24,1.35,.3,1.06,.14,2.14,.24,3.2,.39,.22,.03,.41,.28,.63,.37,.47,.19,.95,.41,1.44,.51,.98,.2,1.98,.33,2.97,.47,.48,.07,.97,.05,1.45,.14,2.65,.52,5.3,1.46,7.95,1.47,1.92,.01,3.84,.59,5.85,.07,1.03-.27,2.3,.55,3.48,.64,2.04,.14,4.1,.07,6.15,.13,2.18,.06,4.35,.18,6.53,.24,1.5,.04,3.04-.48,4.5,.3,.9-.84,1.89-.16,2.85-.21,2.7-.15,5.4-.67,8.08-.56,1.98,.08,3.84-.74,5.84-.37,.7,.13,1.5-.44,2.28-.58,.42-.07,.9,.2,1.33,.14,1.16-.17,2.31-.45,3.47-.64,.35-.06,.75-.08,1.06,.05,.84,.35,1.46,.02,2.22-.34,.64-.3,1.48-.16,2.24-.21,.79-.05,1.58-.09,2.36-.16,.89-.08,1.78-.15,2.66-.28,1.42-.21,2.87-.38,4.26-.74,2-.52,3.96-1.22,5.96-1.77,.76-.21,1.59-.16,2.36-.34,.82-.19,1.6-.59,2.42-.77,.88-.19,1.81-.18,2.69-.35,.5-.1,.97-.39,1.46-.57,1.38-.49,2.83-.83,4.13-1.48,1.69-.84,3.67-.77,5.25-2.08,.83-.69,2.28-.59,3.42-.95,.93-.3,1.82-.74,2.72-1.15,.96-.44,1.9-.93,2.86-1.37,1.62-.74,3.38-1.08,4.9-2.14,1.26-.88,2.79-1.37,4.19-2.06,.53-.26,1.03-.56,1.53-.87,.4-.24,.75-.55,1.16-.76,1.68-.86,3.42-1.62,5.06-2.55,1.23-.7,2.74-1.35,3.41-2.46,1.1-1.81,3.02-2.45,4.41-3.83,1.65-1.63,2.98-3.78,5.38-4.63,.42-.15,.63-.84,1-1.22,1.05-1.1,2.05-2.28,3.23-3.22,.7-.55,1.03-1.07,1.29-1.91,.21-.69,1.19-1.1,1.68-1.75,1-1.32,1.99-2.65,2.82-4.08,1.21-2.09,2.43-4.16,3.71-6.21,.71-1.14,1.15-2.45,1.69-3.69,1.05-2.38,2.06-4.75,2.45-7.37,.21-1.43,.86-2.78,1.26-4.19,.25-.89,.33-1.83,.64-2.69,.2-.55,.67-1.01,1.03-1.49,.05-.07,.2-.08,.31-.11,.09,.88,1,.65,1.37,1.02,.39,.38,.35,1.19,.5,1.83Z"/><path class="cls-4" d="M136.57,216.64c-.12-.58-.13-1.22-.38-1.74-.63-1.28,.34-2.43,.19-3.67-.05-.37,.38-.81,.61-1.21,1.28-2.2,3.21-3.41,5.7-3.82,.51-.08,.97-.44,1.45-.67,.24-.12,.48-.32,.73-.33,.98-.04,1.98-.15,2.93,0,2.1,.33,4.26,.56,6.23,1.3,2.07,.78,3.76,2.35,4.74,4.41,.27,.56-.04,1.39-.05,2.1-.02,.85,.23,1.8-.06,2.54-.37,.92-1.2,1.65-1.79,2.49-.88,1.28-2.08,2.2-3.39,2.95-.44,.25-1.08,.13-1.62,.2-1.63,.19-3.26,.41-4.9,.56-.29,.03-.59-.27-.91-.35-2.17-.54-4.35-1.01-6.51-1.6-.75-.21-1.55-.55-2.11-1.07-.52-.49-.76-1.29-1.12-1.95,.08-.05,.17-.09,.25-.14Zm12.66,1.63c1.33,.06,4.13-1.14,5.04-2.12,1.25-1.34,.88-3.02,.95-4.58,.01-.33-.91-.68-1.38-1.05-.38-.3-.9-.98-1.07-.9-.95,.47-1.42-.49-2.14-.56-.56-.06-1.14,0-1.7-.02-.96-.03-1.93-.11-2.89-.13-.33,0-.71,.27-1,.18-1.97-.6-3.17,1.07-4.74,1.6-.15,.05-.22,.4-.27,.62-.2,.9-.38,1.8-.56,2.71-.23,1.17,.78,2.8,1.72,2.89,.9,.09,1.79,.28,2.67,.49,.77,.19,1.5,.57,2.27,.68,1.02,.15,2.07,.12,3.11,.17Z"/><path class="cls-4" d="M100.57,207.1c-.83-.05-1.65-.14-2.48-.14-.68,0-1.21,.05-1.89-.44-1.41-.99-2.91-1.53-3.96-3.28-1.42-2.36-1.18-4.3-.12-6.48,.05-.1,.19-.19,.18-.28-.04-.97,.31-1.11,.77-1.72,.95-1.26,2.32-1.75,3.61-2.4,.73-.37,1.57-.79,2.34-.76,1.66,.06,3.4,.15,4.93,.71,1.12,.42,2.45,.99,2.98,2.39,.21,.55,.82,.96,.97,1.51,.26,.96,.43,1.98,.43,2.97,0,2.07-.7,4.01-2.35,5.25-1.6,1.2-3.12,2.78-5.42,2.66Zm-.94-3.14c.61-.32,1.12-.57,1.61-.85,.58-.33,1.12-.92,1.72-.99,.77-.09,1.13-.28,1.28-1.04,.11-.56,.7-1.15,.59-1.61-.35-1.41-.39-3.13-2.36-3.48-.11-.02-.21-.11-.3-.18-1.4-1.14-3.02-.56-4.29-.08-1.42,.53-2.73,1.69-2.88,3.52-.09,1.12-.53,2.1,.83,3.09,1.23,.9,2.58,.79,3.81,1.63Z"/><path class="cls-4" d="M176.24,201.74c-.99,.38-2.06,.63-2.95,1.18-1.21,.75-1.91,.87-3.14,.04-.06-.04-.08-.17-.08-.26,.01-.33,.19-.77,.05-.97-.52-.71,.13-1.04,.46-1.2,1.21-.61,2.5-1.07,3.74-1.63,.85-.38,1.67-.84,2.51-1.25,1.02-.5,2.03-1.04,3.08-1.45,2.17-.84,3.51-2.33,3.77-4.67,.05-.49-.21-1-.29-1.51-.06-.34-.19-.74-.08-1.02,.34-.85-.02-.97-.76-.99-1.57-.04-3.14-.19-4.71-.22-.82-.01-1.67,.04-2.46,.24-.97,.24-3.3-.35-4-1.16-.47-.55,.32-2.14,1.31-2.35,1.15-.25,2.34-.38,3.52-.4,1.79-.04,3.58,0,5.37,.11,1.2,.08,2.43,.65,3.57,.48,1.7-.25,1.79,.91,2.19,1.89,.07,.18,.03,.45-.05,.64-.55,1.31-.52,2.59,.01,3.9,.08,.2-.07,.5-.13,.75-.4,1.59-.8,3.19-1.21,4.78-.03,.12-.17,.24-.29,.32-.93,.61-1.87,1.22-2.81,1.82-.13,.09-.26,.18-.41,.24-1.53,.63-3.07,1.21-4.57,1.89-.54,.24-.96,.74-1.43,1.12-.07-.11-.13-.21-.2-.32Z"/><path class="cls-4" d="M133.84,184.5c1.16-.11,2.31-.29,3.47-.32,1.06-.03,2.12,.12,3.19,.15,2.08,.06,4.18,.02,6.25,.22,.34,.03,.75,1.03,.83,1.62,.05,.4-.43,.87-.65,1.32-.16,.33-.36,.67-.41,1.02-.31,2.05-.56,4.11-.9,6.15-.08,.46-.33,.98-.67,1.3-1.58,1.48-3.03,3.23-4.88,4.22-1.47,.78-2.72,1.8-4.11,2.65-.23,.14-.48,.26-.73,.34-.85,.28-1.74,.48-2.57,.82-.96,.4-2.15-.22-2.19-1.28-.04-.99-.19-2.07,1.29-2.24,.39-.05,.74-.44,1.14-.54,.54-.13,.73-1.48,1.63-.49,.05,.05,.57-.22,.79-.44,.82-.81,1.67-1.41,2.82-1.87,1.31-.52,2.35-1.81,3.39-2.88,1.53-1.58,1.1-3.7,1.29-5.63,.02-.21-.9-.8-1.27-.71-1.91,.45-3.79,.07-5.68,.05-.86-.01-1.72-.1-2.58-.1-.97,0-1.47-.47-1.7-1.41-.23-.93,.22-1.35,1-1.64,.41-.15,.79-.35,1.19-.53,.03,.07,.05,.15,.08,.22Z"/><path class="cls-4" d="M194.38,217.1c.2-2.31,.42-4.62,.55-6.94,.01-.24-.45-.63-.77-.74-.37-.13-.83-.06-1.24-.02-.15,.01-.29,.27-.44,.27-1.51,0-3.16-.41-4.48,.08-1.22,.45-2.08-.17-3.11-.11-1.98,.12-3.97,.22-5.96,.26-.84,.01-1.92,.12-2.47-.33-.64-.53-.96-1.59-1.15-2.47-.09-.46,2.16-1.08,2.73-.9,.57,.18,1.19,.28,1.79,.28,1.32,0,2.64-.1,3.96-.13,1.61-.03,3.23,.04,4.83-.08,1.46-.11,2.91-.54,4.37-.61,1.45-.07,2.93,.05,4.38,.24,.82,.11,1.31,.52,1.13,1.65-.24,1.55-.05,3.17-.1,4.75-.05,1.8-.34,3.63-.17,5.4,.08,.83,.1,1.44-.5,1.92-.41,.33-1.09,.79-1.44,.65-.57-.22-1.1-.81-1.41-1.37-.28-.51-.25-1.19-.36-1.79-.05,0-.1-.01-.15-.02Z"/><path class="cls-4" d="M115.41,209.65c-.56-.12-.98-.4-1.25-1.33-.49-1.68-.07-3.32-.11-4.96-.05-1.92,.56-3.78,.1-5.79-.34-1.47,.28-3.13,.29-4.71,0-1.62,.31-3.27-.29-4.87-.12-.32,.21-.78,.25-1.18,.06-.72,.06-1.44,.08-2.16,.04-.98,.29-1.86,1.41-2.06,.59-.1,1.12-.04,1.48,.72,.69,1.44,.56,2.93,.58,4.43,.03,1.72,.07,3.45,.21,5.16,.02,.29,.67,.82,.84,.75,1.59-.63,3.05-.22,4.38,.59,.39,.24,.57,1.13,.5,1.68-.05,.43-.59,1.08-.98,1.13-1.34,.17-2.7,.16-4.06,.12-.69-.02-.9,.18-.88,.87,.04,1.89,.15,3.81-.06,5.68-.1,.92,.27,2.04-.63,2.81-.05,.05-.07,.13-.11,.2,1.31,.61-.02,1.16-.09,1.7-.17,1.21-.26,1.2-1.65,1.23Z"/><path class="cls-4" d="M95.56,218.06c-.16-1.13-.35-2.31-.47-3.49-.04-.41,.11-.83,.13-1.25,.02-.75-.2-1.59,.06-2.24,.25-.6,1.06-1.47,1.51-1.41,1.29,.18,2.11,1.55,1.99,2.55-.13,1.11-.21,2.25-.16,3.37,.06,1.19,.86,1.57,2.42,1.43,1.33-.12,2.67-.21,4.01-.22,1.64-.02,3.44,.48,4.88-.03,1.39-.49,2.66,.18,3.99-.32,.74-.28,1.76,.24,2.66,.37,.54,.08,1.17-.08,1.61,.16,.84,.45,1.76,1.02,1.46,2.23-.21,.85-1.64,1.44-2.72,1.34-2.38-.22-4.75-.43-7.16-.02-1.39,.24-2.88-.08-4.33-.14-.38-.01-.77,.04-1.16,.05-.81,.02-1.62,.03-2.43,.04-1.42,0-2.85,.05-4.27,0-1.71-.06-2.08-.53-2.02-2.41Z"/><path class="cls-4" d="M196.58,182.51c1.29-.34,1.32,.48,1.31,1.38-.03,2.4-.07,4.8-.03,7.2,.01,.95,.84,.62,1.37,.64,1.04,.04,2.11-.12,3.13,.07,1.55,.29,1.98,.87,1.77,2.26-.07,.43-.59,1-1.01,1.12-.84,.24-1.76,.22-2.65,.3-.16,.01-.32,.05-.47,.03-1.31-.21-1.88,.05-2.05,1.36-.15,1.24,.08,2.52,.08,3.78,0,.6-.1,1.2-.23,1.79-.11,.46-.32,.9-.51,1.34-.3,.7-1.6,.81-2.52,.17-.22-.15-.44-.5-.42-.74,.07-.91,.24-1.81,.34-2.72,.02-.17-.09-.36-.17-.52-.63-1.24-.54-2.48-.02-3.72,.06-.15,.21-.33,.17-.43-.64-1.37,.16-2.81-.19-4.19-.1-.39-.13-.81-.1-1.21,.09-1.43,.22-2.86,.32-4.29,.06-.8-.03-1.64,.18-2.4,.21-.74,.56-1.62,1.69-1.22Z"/><path class="cls-4" d="M110.9,189.16c0,.89-.18,1.42-1.38,1.39-1.68-.04-3.36,.21-5.04,.36-1.5,.13-2.98-.08-4.48-.18-2.56-.17-5.14-.23-7.7-.21-.91,0-1.72,.21-2.62-.39-.87-.58-.09-1.36-.56-1.88,.49-.41,.93-1.06,1.47-1.17,1.05-.21,2.16-.12,3.25-.13,1.12-.01,2.24,.07,3.35-.04,.31-.03,.61-.57,.84-.92,.56-.88-.32-1.8,.14-2.83,.4-.89,1.04-.62,1.51-.72,.36-.08,1.1,.36,1.24,.72,.36,.95,.62,1.98,.66,2.99,.03,.75,.25,.88,.9,.85,2.22-.11,4.44-.18,6.66-.28,.77-.03,1.69,.72,1.78,2.45Z"/><path class="cls-4" d="M161.67,194.93c-.91-.05-1.81-.13-2.72-.13-.28,0-.56,.21-.84,.33,.15,.17,.33,.31,.42,.5,.05,.1-.09,.28-.1,.43-.04,.94-.04,1.88-.13,2.81-.05,.49-.31,.95-.38,1.44-.18,1.18-.23,2.38-.51,3.54-.08,.36-.69,.78-1.09,.82-.49,.05-1.41-.19-1.45-.43-.19-1.07-1.56-2.07-.23-3.31,.26-.24,.06-.98,.07-1.49,.03-1.5,.28-3.03,.05-4.49-.26-1.61,.82-3.24-.19-4.79-.04-.07-.01-.25,.05-.32,1.03-1.02,.47-2.23,.39-3.36-.08-1.18-.31-2.35-.36-3.53,0-.19,.6-.59,.89-.56,.69,.08,1.7,.15,1.97,.59,.53,.86,.77,1.97,.9,3,.09,.78-.2,1.61-.3,2.42-.06,.51-.06,1.02-.15,1.52-.19,1.1,.08,1.46,1.22,1.38,.85-.06,1.7-.18,2.54-.33,.36-.06,.81-.37,.35,.34,.37,.14,.78,.22,1.1,.44,.32,.22,.78,.59,.75,.85-.07,.58-.28,1.22-.66,1.65-.36,.42-1,.61-1.51,.9-.03-.08-.06-.17-.09-.25Z"/><path class="cls-4" d="M215.55,95.79c.2-1.26,.43-2.21,.49-3.17,.05-.86-.68-.5-1.16-.62-.94-.24-2.06,.54-2.83-.41-.43-.54-.74-1.21-.96-1.86-.13-.4,1.59-1.55,2.12-1.55,.74,0,1.53-.41,2.18,.29,0,0,.32-.19,.31-.27-.2-1.18-.48-2.35-.64-3.53-.16-1.13,1.06-2.97,1.9-3.02,.37-.02,1.37,1.03,1.51,1.29,.67,1.23,.45,2.67,.67,3.95,.26,1.56,.96,.85,1.64,1.02,1.12,.28,2.53-.4,3.33,1.02,.34,.61,.55,1.16,.1,1.74-.36,.47-.64,1.21-1.52,.81-.15-.07-.41-.03-.57,.06-.53,.27-1,.64-1.61,.03-.16-.16-.68,.03-1.03,.06,.03,.26,.17,.59,.06,.77-.8,1.38,0,2.74-.05,4.1-.02,.57-.65,1.29-1.19,1.59-.4,.22-1.32,.05-1.65-.29-.55-.57-.81-1.41-1.11-1.98Z"/><path class="cls-4" d="M153.11,26.7c-.25,1.12,.36,1.2,.98,.97,1.27-.48,2.48-.58,3.79-.08,.41,.16,.58,.15,.69,.62,.07,.31,.53,.52,.78,.81,.06,.07,.03,.29-.04,.39-.77,1.22-1.88,1.79-3.33,1.82-2.42,.05-2.62,.37-2.81,2.79-.08,.96-.49,1.93-.94,2.81-.42,.82-1.3,1.01-2.06,.52-.59-.38-1.12-.91-.61-1.87,.26-.48,0-1.23,0-1.85,0-.22,0-.47,.11-.65,.56-.89-.26-1.23-.72-1.34-.78-.19-1.64-.16-2.45-.08-.91,.09-1.17-.57-1.52-1.12-.38-.6-.41-1.17,.13-1.77,.87-.99,2.42-1.27,3.94-.63,.25,.11,.53,.17,.79,.25-.1-.21-.28-.43-.27-.64,.01-.69,.06-1.39,.16-2.08,.06-.46,.09-1.09,.38-1.33,1.13-.92,2.79-.11,2.92,1.37,.04,.42,.05,.84,.07,1.1Z"/><path class="cls-2" d="M201.94,41.21c.24,.73,.52,1.46,.71,2.21,.16,.62,.33,1.27,.3,1.9-.08,2.25,.38,4.57-.86,6.7-.4,.69-.53,1.54-.8,2.32-.11,.32-.22,.66-.41,.93-.36,.52-.82,.88-.73,1.72,.05,.51-.73,1.13-1.17,1.68-1.1,1.35-2.15,2.76-3.37,3.99-.74,.74-1.79,1.16-2.67,1.78-.85,.6-1.76,.9-2.81,.79-.06,0-.15,.05-.21,.1-1.57,1.4-3.67,1.19-5.52,1.71-1.62,.46-3.4,.88-5.02,.67-2.53-.32-5.07-1-7.46-1.9-1.74-.65-3.25-1.92-4.87-2.89-.35-.21-.77-.3-1.09-.54-.29-.22-.49-.56-.74-.85,.27-.16,.55-.33,.82-.49,.72-.42,1.39-.13,2.12,.06,.38,.1,.85-.26,1.3-.3,.33-.03,.69,.24,1,.17,1.23-.24,2.45-.57,3.67-.85,.5-.12,1.02-.17,1.5-.33,.93-.32,1.84-.7,2.76-1.05,.76-.29,1.57-.51,2.27-.91,.54-.31,.9-.9,1.41-1.28,1.05-.79,2.33-1.37,3.18-2.33,1.49-1.69,2.77-3.57,4.08-5.42,.76-1.07,1.45-2.19,2.06-3.34,.34-.66,.32-1.51,.68-2.16,1.02-1.85,.65-3.86,.76-5.8,.11-2.07,.09-4.17-.13-6.23-.12-1.18-.76-2.3-1.13-3.46-.1-.31-.07-.65-.1-.98,.19,.2,.36,.44,.58,.59,.66,.45,1.35,.86,2.01,1.32,.36,.25,.74,.53,1.01,.87,.94,1.17,1.87,2.35,2.76,3.56,.61,.84,1.15,1.73,1.72,2.6,.29,.44,.52,.92,.84,1.33,.94,1.21,1.61,2.52,1.53,4.12Z"/></g><path class="cls-3" d="M89.65,0C90.29,0,90.93,0,91.57,0c.11,.13,.21,.39,.32,.39,2.56,0,5.1,.41,7.66,.29,1.61-.07,3.24,.05,4.86,.04,2.05-.02,4.09-.08,6.14-.15,.69-.02,1.43-.33,2.04-.15,1.6,.45,3.17,.3,4.77,.2,1.15-.07,2.31-.13,3.46-.12,1.27,.01,2.54,.12,3.8,.17,.61,.02,1.24,.13,1.81-.02,1.18-.3,2.27-.11,3.35,.32,.12,.05,.28,0,.42-.03,.28-.08,.55-.26,.83-.27,2.9-.12,5.8-.21,8.7-.32,1.48,.97,3.1,.13,4.65,.27,2.63,.24,5.3-.04,7.95-.04,1.52,0,3.05,.15,4.57,.13,1.15-.01,2.3-.27,3.45-.25,2.57,.03,5.15,.26,7.72,.2,.85-.02,1.99,.44,2.64-.66,.08,0,.16,0,.24,0,.02,.08,.04,.22,.05,.22,1.66-.09,3.2,.74,4.98,.35,1.56-.34,3.28,.04,4.93,.12,.58,.03,1.17,.18,1.75,.16,.74-.03,1.48-.24,2.23-.24,1.26-.01,2.52,.13,3.79,.11,1.96-.03,3.93-.2,5.89-.22,1.23-.01,2.45,.15,3.68,.2,.89,.04,1.78,0,2.67,.02,1.47,.05,2.96,.3,4.4,.14,1.12-.12,2.18-.54,3.33-.14,.38,.13,.86,.01,1.29-.02,.73-.06,1.57-.42,2.15-.16,1.34,.59,2.53-.27,3.81-.09,1,.14,2.05-.12,3.08-.14,.49-.01,.98,.12,1.54,.19,.15,.93,.72,0,1.12,0,2.42-.06,4.82,.38,7.26,.04,1.31-.18,2.69-.29,4.05,.13,.54,.17,1.22-.15,1.83-.13,.96,.03,1.92,.19,2.88,.21,.4,0,.8-.35,1.2-.34,1.27,.01,2.54,.15,3.82,.18,1.08,.03,2.17-.06,3.25-.03,1.6,.04,3.2,.22,4.79,.2,2.14-.02,4.29-.22,6.43-.24,1.79-.02,3.57,.13,5.36,.16,.58,.01,1.16-.09,2.03-.16,.06,.01,.42,.13,.78,.13,1.06,0,2.13-.11,3.19-.07,1.67,.06,3.33,.29,4.99,.28,1.61-.01,3.22-.22,4.83-.37,1.57-.14,3.06,.17,4.49,.78,.36,.15,.76,.64,.81,1.02,.17,1.18,.23,2.38,.25,3.57,.02,1.01-.12,2.02-.11,3.03,.02,1.64,.15,3.28,.16,4.92,0,.73-.24,1.46-.28,2.2-.03,.54,.09,1.09,.15,1.64,.11,.59,.15,1.17,.2,1.75,.07,.82,.24,1.65,.2,2.47-.08,1.59-.36,3.17-.39,4.76-.02,1.3,.4,2.63,.27,3.91-.17,1.77-.32,3.49,.03,5.25,.13,.65,0,1.36-.03,2.04-.09,1.79-.22,3.57-.29,5.36-.04,1.27,.42,2.52,0,3.81-.15,.45,.12,1.02,.1,1.54-.03,.95-.18,1.9-.18,2.85,0,.81,.13,1.62,.17,2.43,.04,.81,.02,1.63,.05,2.44,.04,1.1,.15,2.2,.14,3.29-.03,2.49-.12,4.98-.19,7.47-.02,.61-.08,1.22-.09,1.83-.02,2.12,.86,4.25-.07,6.36-.05,.12,.05,.3,.07,.45,.09,.65,.25,1.31,.25,1.97-.01,2.27-.15,4.55-.1,6.82,.03,1.43-.23,2.83,.11,4.33,.36,1.56,.01,3.29-.07,4.94-.07,1.51-.27,3.02-.28,4.54,0,2.06,.08,4.13,.2,6.19,.07,1.24,.57,2.54,.34,3.7-.32,1.61-.18,3.12,.02,4.67,.02,.13-.15,.28-.22,.42-.11,.25-.3,.51-.28,.75,.05,.9,.25,1.8,.25,2.7,0,1.39-.19,2.78-.2,4.17,0,1.49,.14,2.98,.15,4.47,0,.59-.56,1.16,.13,1.78,.23,.2,.09,.86,.05,1.3-.13,1.38-.5,2.77-.38,4.12,.15,1.84,.36,3.64,.19,5.5-.17,1.89-.06,3.8-.06,5.7,0,2.33-.02,4.65,.01,6.98,.02,1.09,.16,2.18,.2,3.27,.03,1,.04,2.01-.04,3.01-.06,.83-.37,1.65-.37,2.47,0,.96,.24,1.92,.29,2.89,.09,1.44,.14,2.89,.15,4.34,0,1.11-.1,2.23-.09,3.34,0,.74,.22,1.49,.13,2.21-.18,1.5-.48,2.9-.22,4.5,.22,1.35-.23,2.83,.33,4.3,.23,.6-.26,1.48-.41,2.23-.08,.38-.2,.78-.17,1.16,.12,1.56,.75,3.09,.27,4.67-.53,1.79,.48,3.52-.09,5.45-.51,1.71,.31,3.77-.22,5.68-.12,.44-.07,1.17,.21,1.41,.79,.68,.25,1.49,.34,2.2,.11,.96-.21,1.96-.22,2.94-.01,1.84,.12,3.67,.1,5.51-.01,1.5-.17,3-.21,4.51-.01,.38,.23,.76,.21,1.13-.04,.9-.35,1.83-.23,2.7,.2,1.44-.57,2.79,.03,4.33,.46,1.18,.02,2.7-.01,4.07-.06,2.3-.09,4.59-.17,6.89-.02,.59-.28,1.2-.21,1.77,.12,1.05,.41,2.09,.6,3.14,.07,.42,.13,.86,.08,1.27-.15,1.28-.53,2.55-.51,3.82,.03,1.36,.45,2.67,.29,4.1-.18,1.56-.53,3.16,.04,4.76,.19,.52,.06,1.17,.04,1.76-.04,1.28-.12,2.56-.16,3.84-.02,.77,0,1.55-.01,2.32-.03,1.8-.05,3.61-.13,5.41-.04,.81-.58,1.9-.23,2.38,.96,1.31,.07,2.61,.32,3.89,.18,.87,.04,1.81,.01,2.72-.03,.89,.8,1.82-.13,2.68-.08,.07-.08,.32-.03,.45,.64,1.67-.31,2.96-1.01,4.31-.1,.18-.28,.42-.45,.44-1.22,.16-2.57,.64-3.64,.3-1.29-.41-2.43-.16-3.65-.17-1.67,0-3.33-.17-5-.18-.68,0-1.37,.34-2.05,.34-2.02,0-4.04-.07-6.05-.19-1.66-.1-3.27,.56-4.97,.12-1.68-.44-3.42-.55-5.17-.18-.49,.1-1.06-.25-1.59-.23-2.32,.11-4.63,.27-6.94,.43-.3,.02-.7,.33-.86,.23-1.23-.84-2.63-.51-3.88-.41-2.43,.19-4.82,.47-7.17-.44-.11-.04-.28,.07-.43,.1-.6,.12-1.19,.32-1.79,.34-1.76,.07-3.53,.06-5.29,.11-1.03,.03-2.07,.18-3.1,.15-.52-.01-1.02-.42-1.54-.43-2.31-.04-4.61,0-6.92,0-.13,0-.3-.15-.39-.1-1.08,.63-2.17,.33-3.27,.08-.25-.06-.61-.16-.76-.04-.66,.52-1.3,.46-2.04,.18-.4-.15-.9-.12-1.34-.1-1.29,.09-2.57,.29-3.86,.31-2.29,.04-4.59-.03-6.88-.05-.56,0-1.12,.06-1.68,.04-1.4-.07-2.8-.22-4.21-.24-1.3-.02-2.6,.13-3.89,.11-.99-.01-1.99-.25-2.98-.25-2.1,0-4.2,.11-6.29,.15-.31,0-.62-.24-.93-.24-1.19,.03-2.37,.13-3.56,.17-2.22,.08-4.43,.15-6.65,.22-.98,.03-1.96,.07-2.93,.01-.48-.03-.95-.34-1.44-.37-.55-.02-1.12,.12-1.67,.22-.63,.11-1.26,.25-1.89,.36-.13,.02-.28,.02-.41,0-.75-.07-1.67,.09-2.2-.29-.7-.52-1.15,.29-1.87-.03-.76-.33-1.86,.21-2.81,.25-1.11,.04-2.22-.09-3.34-.08-1.16,.01-2.33,.22-3.48,.16-1.98-.1-3.95-.44-5.93-.5-1.52-.05-3.09,.02-4.57,.35-1.03,.23-1.97,.43-2.96,.05-.26-.1-.49-.4-.74-.4-.73-.02-1.46,.09-2.19,.1-1.02,.02-2.05,0-3.07,.02-1.8,.05-3.6,.17-5.4,.17-1.58,0-3.17-.14-4.75-.16-.85-.01-1.73,.21-2.56,.1-1.81-.23-3.59-.3-5.41-.08-.85,.11-1.75-.16-2.62-.14-1.67,.05-3.34,.28-5.01,.25-1.58-.02-3.15-.38-4.73-.39-1.29-.01-2.58,.3-3.88,.4-1.13,.09-2.26,.13-3.39,.11-1.59-.03-3.19-.16-4.78-.19-1.26-.02-2.53,.07-3.8,.05-1.09-.02-2.17-.14-3.26-.17-.78-.02-1.56,.03-2.34,.04-.75,0-1.51,0-2.26,.02-.97,.03-1.94,.08-2.91,.15-.41,.03-.82,.2-1.22,.17-.79-.06-1.58-.24-2.37-.32-.18-.02-.52,.26-.56,.21-.87-1.02-2.11-.5-2.98-.4-2.02,.23-3.99,.89-6.02,.07-.03-.01-.08,0-.12,0-2.5,.09-5,.17-7.5,.26-.73,.03-1.47,.12-2.2,.09-1.2-.05-2.39-.22-3.59-.24-1.15-.02-2.29,.11-3.44,.14-.37,.01-.74-.07-1.11-.08-1.38-.03-2.75-.06-4.13-.05-1.35,0-2.7,.05-4.05,.06-1.44,.02-2.89,.08-4.33,.02-1.3-.05-2.6-.31-3.91-.33-.89-.01-1.78,.35-2.66,.32-1.76-.06-3.59,.62-5.29-.4-.16-.09-.46,.06-.69,.08-1.09,.09-2.22,.41-3.25,.2-1.02-.21-1.97-.33-2.96-.1-.1-.17-.18-.35-.3-.49-.39-.44-.89-.81-1.2-1.3-.96-1.51-.61-3.28-.72-4.91-.12-1.9,.19-3.84,.29-5.76,.01-.2-.26-.41-.25-.6,.07-1.65,.22-3.29,.26-4.94,.02-.85-.23-1.71-.23-2.56,0-1.76,.11-3.52,.12-5.27,0-1.13-.23-2.27-.1-3.38,.2-1.72-.18-3.47,.37-5.17,.12-.38-.36-.91-.37-1.38-.04-1.49,.29-3.05-.04-4.46-.38-1.58,.12-3.05,0-4.58-.13-1.49,.07-3.01,.07-4.51,0-.86-.07-1.73-.18-2.58-.24-1.86,.92-3.6,.26-5.58-.4-1.19,.05-2.67,.14-4.02,.13-1.85,.03-3.66-.35-5.49-.22-1.06,.28-2.26,.14-3.36-.14-1.14,.63-2.41-.39-3.44-.02-.02,.08-.13,.09-.2,.12-.88,.3-1.76,.34-2.64,.06-1.18,0-2.36,.03-3.54,.02-.67,.09-1.35,.17-2.02,.14-1.22-.07-2.47-.18-3.64-.06-.65-.06-1.35-.16-2-.23-1.55,.02-3.03,.23-4.5,.2-1.43,.16-2.74-.22-4.12-.18-.65,.05-1.43,.11-2.14,.03-.37,.12-.74,.1-1.11-.07-1.11-.28-2.22-.25-3.33,.03-1.25,.52-2.54,.34-3.74-.2-1.37-.55-2.59-.12-4.04,.34-1.16-.04-2.53-.07-3.81,0-.47,.12-.94,.13-1.41,.01-.92-.35-2.02,.03-2.72,.92-1.67-1.04-3.42,.32-4.97,.02-.02-.15-.18-.18-.29-.21-.81-.78-1.77-.53-2.4,.71-1.79,.36-3.54,.28-5.32-.06-1.25-.08-2.49-.08-3.74,0-.85,.14-1.7,.13-2.55-.02-1.23-.53-2.43-.1-3.69,.19-.54,.24-1.16,.2-1.73-.1-1.52-.4-3.04-.4-4.56,0-1.33,.29-2.66,.43-3.99,.01-.11-.18-.24-.18-.37-.01-.35,.02-.71,.05-1.06,.02-.26,.17-.69,.08-.74-.88-.53-.34-1.14-.17-1.74,.13-.49,.3-1,.29-1.5-.02-1.45-.13-2.9-.19-4.36-.04-.76-.1-1.52-.08-2.27,.04-1.44,.12-2.88,.18-4.32,.04-.86,.09-1.73,.08-2.59-.03-1.37-.11-2.74-.17-4.14-.03,0-.19-.04-.16-.03,.09-.36,.23-.62,.21-.87-.06-.79-.25-1.58-.26-2.37-.02-1.75,.07-3.49,.05-5.24-.01-1.37-.2-2.74-.15-4.11,.06-1.5,.3-2.99,.45-4.48,.02-.24,.09-.56-.03-.7-.7-.83-.24-1.72-.18-2.58,.07-.91,.22-1.81,.25-2.73,.08-1.92-.84-3.8-.15-5.78,.24-.7,.03-1.56,.02-2.35,0-.03-.06-.06-.06-.1-.15-.86-.46-1.72-.4-2.57,.08-1.09,.43-2.14,.35-3.29-.11-1.68,.1-3.38,.11-5.07,0-1.31-.25-2.64-.09-3.92,.16-1.29,.28-2.51,0-3.81-.24-1.08-.39-2.3-.14-3.35,.34-1.45-.48-3,.49-4.35,.06-.09-.02-.29-.04-.44-.14-1.16-.32-2.32-.4-3.48-.05-.75,.06-1.51,.08-2.27,.04-1.59,.07-3.17,.09-4.76,0-.83-.05-1.67-.06-2.5,0-.54,.3-1.12-.27-1.55,.64-.7,.04-1.38-.01-2.08-.12-1.61,.48-3.16,.16-4.84-.22-1.19,.68-2.49,.08-3.81-.14-.3,.06-.75,.09-1.14,.04-.58,.12-1.17,.09-1.75-.06-1.16-.56-2.47-.18-3.44,.36-.93,.28-1.65,.2-2.51-.11-1.17-.08-2.36-.08-3.54,0-1.07,.04-2.14,.07-3.22,.03-1.4,.2-2.82,.05-4.2-.16-1.53-.63-3.09,.24-4.48,.38-.61,1.22-1.08,1.95-1.29,.73-.21,1.57,0,2.36,0,1.3-.01,2.59-.07,3.89-.08,.71,0,1.41,.06,2.12,.05,1.49-.02,2.99-.13,4.48-.08,1.4,.04,2.77,.81,4.19,.12,.11-.06,.31,.08,.46,.07,.57,0,1.14-.02,1.71-.06,.34-.03,.68-.2,1.02-.19,1.17,.05,2.34,.23,3.52,.22,1.03,0,2.05-.28,3.08-.28,1.56,0,3.12,.2,4.68,.21,1.32,0,2.64-.17,3.97-.19,2.48-.03,4.97,0,7.46,0,.07,.21,.15,.44,.19,.53,.93-.12,1.74-.26,2.57-.32,.76-.05,1.65,.24,2.26-.07,.84-.42,1.56-.25,2.35-.18,1.86,.17,3.72,.44,5.58,.44,1.29,0,2.58-.48,3.88-.54,1.95-.09,3.92,0,5.87,0,.85,0,1.75-.2,2.53,.01,1.37,.38,2.69,.73,4.13,.36,.6-.15,1.26-.09,1.89-.07,1.52,.04,3.08,.35,4.54,.09,1.85-.33,3.62-.29,5.45-.06,.9,.11,1.93,.32,2.55-.72Zm189.89,211c.13-.9,.27-1.67,.33-2.44,.07-.8-.11-1.65,.12-2.39,.27-.88,.21-1.61-.02-2.47-.2-.73,.36-1.53,.1-2.37-.17-.54-.18-1.14-.2-1.72-.03-.83,.02-1.67,.01-2.5-.02-1.54-.51-3.14,.57-4.56,.08-.11-.06-.39-.11-.59-.09-.32-.25-.64-.28-.97-.08-1.02-.2-2.05-.14-3.07,.11-2.12-.63-4.27,.35-6.37,.17-.37-.4-1.03-.4-1.56-.01-1.76,.1-3.52,.13-5.28,.03-2.18,0-4.36,.02-6.54,.02-1.9,.07-3.81,.1-5.71,.02-1.31,.06-2.61,.05-3.92,0-.81-.15-1.61-.15-2.42,0-.97,.14-1.94,.14-2.91,0-.32-.39-.65-.37-.96,.08-1.3,.28-2.59,.37-3.89,.05-.71-.05-1.44-.1-2.15-.04-.61-.16-1.22-.17-1.84-.02-1.12,.29-2.3,.27-3.32-.03-1.43,.15-2.92-.25-4.4-.34-1.28-.35-2.73-.16-4.05,.31-2.09,.31-4.14,.17-6.23-.13-1.87,.09-3.76,.02-5.64-.03-.83-.34-1.63,.27-2.37,.09-.11,.02-.37,0-.56-.09-1.41-.22-2.81-.25-4.22-.02-.89,.12-1.79,.13-2.69,.01-1.38,.18-2.75-.18-4.16-.28-1.12-.07-2.37-.06-3.56,.01-1.74,.05-3.48,.07-5.22,.02-1.47,0-2.94,.03-4.41,.01-.81,.12-1.62,.1-2.42-.01-.66-.2-1.31-.22-1.97-.03-1.66-.08-3.33,0-5,.14-2.6,.54-5.19-.07-7.78-.03-.12,.14-.27,.16-.42,.09-1.05,.24-2.1,.24-3.15-.01-1.44-.16-2.88-.22-4.33-.05-1.29-.1-2.58-.08-3.86,.02-1.32,.1-2.64,.2-3.95,.06-.73,.3-1.45,.29-2.18,0-.56-.31-1.11-.37-1.68-.25-2.25-.02-4.48,.28-6.71,.02-.11-.01-.24-.02-.35-.12-1.88-.31-3.75-.34-5.63-.03-1.9,.11-3.81,.13-5.71,.03-2.06,0-4.12,.02-6.19,.03-2.29,.12-4.58,.11-6.87,0-.65-.29-1.3-.43-1.95-.02-.09,.04-.26,.11-.29,.58-.27,.36-.83,.53-1.22,.41-.97-.14-1.74-.23-2.58-.18-1.57,0-3.09,.07-4.64,.09-1.93-.23-3.87-.37-5.81-.01-.18,.07-.36,.09-.55,.13-1.1,.18-2.22,.39-3.3,.18-.89-.42-.97-.87-.8-1.34,.51-2.68,.27-4.01,.18-1.1-.07-2.19,.39-3.31-.12-.31-.15-.87,.35-1.31,.34-1.86-.05-3.72-.17-5.58-.28-1.83-.11-3.64,.64-5.5,.1-.43-.13-1,.19-1.5,.3-.72-.23-1.46-.27-2.2-.29-.58-.01-1.17,0-1.75,.03-.87,.05-1.73,.13-2.59,.21-.71,.07-1.46,.34-2.11,.19-1.5-.36-2.96-.65-4.5-.23-.46,.13-.97,.11-1.46,.09-.56-.03-1.17-.29-1.67-.15-.38,.11-.64,.02-.95,.03-1.9,.06-3.78-.18-5.67-.23-.94-.03-1.93,.4-2.82,.22-1.63-.33-3.18-.06-4.79,.04-1.54,.09-3.12-.06-4.65-.31-1.42-.23-2.82,1.07-4.23,0-.17-.13-.54,.02-.81,.01-2.06-.06-4.12,.71-6.19,.02-.12-.04-.3,.12-.43,.1-1.3-.22-2.64,.75-3.93-.18-.16-.12-.55,0-.81,.1-1.58,.59-3.16,.38-4.76,.07-.75-.14-1.55-.13-2.32-.13-1.56,0-3.13,.7-4.69-.03-.11-.05-.23-.1-.35-.09-1.07,.06-2.13,.19-3.2,.2-1.42,.02-2.84-.09-4.26-.07-1.11,.02-2.21,.14-3.32,.24-.54,.05-1.09,.18-1.63,.17-.42,0-.84-.21-1.27-.25-1.93-.15-3.86-.47-5.81,.02-1.83,.46-3.7-.53-5.54,.03-.31,.1-.61,.43-.89,.42-.95-.06-1.88-.3-2.83-.36-1.88-.12-3.76-.19-5.64-.23-1.53-.03-3.06-.02-4.58,.04-1.66,.07-3.32,.3-4.98,.32-1.35,.02-2.71-.15-4.07-.23-.98-.06-1.98-.28-2.93-.14-.6,.09-1.08,.27-1.74,.08-1.09-.31-2.25-.41-3.38-.53-.36-.04-.74,.16-1.1,.25-.34,.09-.67,.25-1.01,.28-2.32,.17-4.69-.45-6.97,.45-.08,.03-.2-.02-.31-.03-1.34-.12-2.68-.34-4.02-.33-1.01,.01-2.08,.11-3.05,.17-1.09,.08-2.42-.02-3.63-.19-1.16-.16-2.38,.1-3.57,.1-1.28,0-2.57-.14-3.85-.15-1.66-.02-3.32,0-4.98,.04-1.37,.03-2.75,.17-4.12,.15-2.48-.04-4.95-.2-7.43-.26-.64-.02-1.29,.21-1.94,.2-1.54-.04-3.08-.22-4.62-.22-2.62,.01-5.24,.13-7.87,.19-2.45,.06-4.91-.58-7.35,.12-.2,.06-.45-.09-.68-.11-.62-.04-1.25-.05-1.88-.07-.86-.03-1.66-.31-2.6,0-.74,.25-1.68-.17-2.53-.17-1.63-.01-3.27,.08-4.9,.09-2.28,.02-4.55,0-6.83,.03-1.42,.01-2.84,.09-4.26,.08-1.54-.02-3.08-.13-4.62-.16-1.26-.02-2.53,.05-3.79,.05-2.02,0-4.05-.03-6.07-.04-.56,0-1.12,0-1.68-.02-1.17-.03-2.34-.11-3.5-.09-1.78,.02-3.56,.14-5.33,.14-2.63,0-5.26-.08-7.88-.12-.9-.02-1.8-.05-2.7-.04-.46,0-.93,.14-1.39,.1-.76-.06-1.52-.28-2.28-.29-.79-.01-1.59,.2-2.38,.23-1.18,.04-2.37,.01-3.37,.01-.05,2.76-.11,5.37-.14,7.97,0,.51,.03,1.05,.19,1.53,.37,1.04-.22,2-.15,3,.03,.43,.13,.85,.14,1.28,.03,1.81,.02,3.62,.08,5.43,.02,.46,.39,.94,.35,1.38-.16,1.69-.47,3.38-.63,5.07-.05,.53,.24,1.09,.25,1.64,0,.39-.29,.78-.27,1.16,.05,1.08,.17,2.16,.31,3.24,.09,.66-.74,1.4,.24,2.05,.16,.11-.53,1.21-.34,1.61,.53,1.06,.06,2,0,3-.07,.99-.05,1.98-.04,2.98,.02,1.78,.05,3.56,.1,5.34,.03,1.18,.11,2.37,.13,3.55,.01,.59-.02,1.18-.07,1.77-.13,1.33-.63,2.67,.27,3.94,.1,.15-.02,.44-.01,.67,.03,1.23-.05,2.42-.36,3.65-.23,.9,.13,1.9-.09,2.97-.26,1.23,.21,2.62,.38,3.94,.07,.59,.45,1.39,.2,1.74-1.3,1.78-.06,3.61-.24,5.39-.1,1.02,.44,2.22,.07,3.07-.51,1.17-.15,2.15-.07,3.22,.04,.52-.04,1.06-.07,1.58-.04,.43,.07,.89,.25,1.32,.49,1.22-.07,2.51-.18,3.64-.11,1.13,.07,2.29-.15,3.43-.23,1.22-.26,2.48-.3,3.73-.01,.44,.19,.89,.31,1.33,.17,.62,.63,1.18,.2,1.91-.17,.28-.07,.74-.06,1.11,.02,.7,.29,1.47,.07,2.07-.49,1.35-.2,2.55,.24,3.8,.09,.25,.22,.61,.11,.79-.76,1.32-.18,2.77-.42,4.16-.25,1.44,.09,2.99,.13,4.49,0,.4-.25,.8-.26,1.2-.02,1.34,.01,2.68,.04,4.02,.01,.63,.12,1.26,.09,1.89-.06,1.21,.54,2.43-.17,3.66-.22,.39,.09,1.09,.16,1.65,.04,.31,.21,.83,.1,.9-.68,.42-.29,.82-.1,1.29,.16,.4,.32,.85,.3,1.27-.08,1.73-.23,3.46-.36,5.19-.06,.74,.15,1.4,.34,2.11,.24,.89-.46,2.01-.07,3.07,.03,.08-.06,.21-.12,.3-.44,.67-.38,1.63,.07,2.13-.21,.75-.58,1.47-.55,2.16,.06,1.2,.63,2.41,.52,3.57-.11,1.19,.58,2.47-.31,3.59-.04,.06,.06,.21,.06,.32,0,1.22-.05,2.44,0,3.66,.01,.4,.37,.79,.36,1.18-.03,1.37-.24,2.73-.22,4.1,.02,2.31,.18,4.62,.24,6.94,.02,.7-.1,1.39-.14,2.09-.06,1.23-.14,2.46-.14,3.69,0,.67,.23,1.34,.2,2.01-.04,.95-.31,1.88-.31,2.83,0,.78,.28,1.56,.35,2.35,.06,.65,0,1.3-.03,1.95-.17,2.98-.38,5.95-.52,8.93-.04,.78,.1,1.57,.21,2.34,.1,.73,.37,1.44,.4,2.16,.04,.86-.13,1.72-.16,2.58-.04,1.06,0,2.12-.05,3.17-.06,1.05-.36,2.12-.21,3.14,.07,.47,.14,.84,0,1.28-.05,.16,.06,.37,.09,.56,.06,.47,.15,.94,.17,1.42,.01,.5-.11,1.01-.06,1.51,.12,1.38,.54,2.75-.03,4.14-.17,.41-.15,.92-.14,1.39,.02,.81,.12,1.61,.16,2.42,0,.15-.17,.32-.14,.44,.4,1.53,.37,1.64-.04,3.02-.12,.41-.17,1.04,.05,1.32,.61,.77,.36,1.51,.29,2.34-.06,.85-.94,1.7-.05,2.61,.19,.19,.17,.91-.02,1.08-.71,.6-.41,1.25-.25,1.9,.13,.51,.56,1.09,.43,1.5-.44,1.4-.7,2.79-.51,4.25,.08,.66,.14,1.32,.15,1.98,0,.49-.15,.99-.11,1.47,.07,.76,.54,1.62,.31,2.24-.33,.89,.24,1.56,.13,2.37-.15,1.19,0,2.41-.04,3.61-.04,1.22-.49,2.56-.14,3.64,.44,1.37,.13,2.7,.15,3.99,.01,.9-.26,1.97-.3,2.99-.02,.42-.11,.85-.08,1.27,.09,1.1,.27,2.19,.35,3.29,.06,.8-.73,1.58,0,2.42,.12,.14-.12,.57-.14,.88-.05,.66-.1,1.33-.09,2,.01,.66,.18,1.33,.13,1.99-.08,.92-.48,1.82-.44,2.72,.06,1.23,.41,2.45,.65,3.78,.21-.17,.39-.42,.52-.4,1.41,.24,2.83,.1,4.22,.15,1.38,.05,2.72,.17,4.09-.14,.24-.05,.58-.03,.78,.1,.86,.55,1.48,.09,1.88-.24,2.57,.73,4.91-.29,7.21,.12,.37,.17,.84,.43,1.18,.31,1.55-.56,3.06-.55,4.58,.05,.2,.08,.55,.12,.67,.01,.61-.56,1.18-.23,1.8-.06,.45,.12,1.06,.25,1.39,.04,1.08-.68,2.35-.35,3.25-.15,.84,.19,1-.23,1.43-.38,2.83,.38,5.7,.27,8.54,.38,2.92,.11,5.86-.22,8.87-.37,.2,.12,.5,.48,.78,.47,1.02-.05,2.03-.31,3.06-.34,1.02-.03,2.02-.35,3.08,.29,.6,.36,1.59,.14,2.39,.06,.65-.07,1.29-.46,1.93-.46,1.75,0,3.5,.2,5.25,.2,1.62,0,3.26-.05,4.87-.23,.78-.09,1.22,.56,1.8,.59,1.03,.06,2.07-.2,3.11-.28,1.07-.09,2.27-.43,3.19-.08,.84,.32,1.6,.45,2.33,.2,.82-.28,1.65-.2,2.44-.26,1.59-.12,3.29-.8,4.82,.36,.13,.1,.4,.06,.58,.02,.87-.2,1.7-.37,2.63-.25,.92,.12,2.02-.4,2.77-.06,.88,.39,1.29,.21,1.79-.37,.82,.69,1.68,.74,2.47,.36,.47-.23,1.06-.38,1.56-.32,1.2,.15,2.38,.58,3.58,.65,1.05,.06,2.12-.25,3.18-.36,.98-.09,2.17-.51,2.9-.11,1.74,.95,3.51,.54,5.14,.29,1.31-.2,2.58-.33,3.86-.21,1.29,.12,2.57,.15,3.87,.44,1.19,.26,2.59-.16,3.93-.19,1.96-.03,3.9-.36,5.88-.03,1.26,.21,2.59-.47,3.85,.19,.03,.01,.11-.11,.18-.15,1.62-.86,3.37-.02,5.1-.38,1.33-.27,2.91,.53,4.45,.28,.74-.12,1.52-.04,2.29-.04,.66,0,1.41,.24,1.94,0,1.03-.48,1.93-.23,2.93-.06,.69,.12,1.44-.07,2.32-.14,.24,.1,.69,.43,1.13,.43,1.44-.01,2.88-.12,4.32-.24,.63-.05,1.24-.31,1.87-.34,1.27-.06,2.55-.05,3.82-.01,1.49,.05,2.98,.2,4.47,.25,.54,.02,1.08-.21,1.62-.22,.43,0,.87,.14,1.3,.22,.63,.1,1.21,.18,1.77,.13,.78-.07,1.55-.3,2.33-.33,.35-.01,.75,.52,1.05,.46,1.29-.29,2.54-.6,3.87-.2,.51,.16,1.27,.4,1.58,.16,1.21-.94,2.42-.32,3.6-.18,1.4,.17,2.78,.45,4.09-.32,.44,.47,1.93,.63,2.64,.29,.16-.08,.41-.27,.47-.22,.72,.58,1.97,.52,2.33,.34,1.27-.59,2.38,.43,3.53,0,.33-.12,.68-.26,1.02-.26,.96-.02,1.92,.03,2.88,.06,.97,.03,1.94,.07,2.91,.14,.73,.05,1.47,.26,2.19,.2,1.27-.1,2.53-.45,3.81-.49,.67-.02,1.35,.53,2.04,.56,2.07,.08,4.15,.09,6.22,.01,1.16-.05,2.31-.47,3.47-.47,1.92,0,3.85,.26,5.77,.34,.61,.03,1.24-.15,1.86-.21,.42-.04,.98-.22,1.24-.02,1.3,.98,2.61-.27,3.93,.1,.54,.15,1.23-.27,1.87-.38,.15-.03,.33,.14,.51,.19,.25,.07,.52,.2,.76,.16,.61-.08,1.22-.36,1.83-.34,1.27,.06,2.53,.3,3.8,.4,1.13,.08,2.22-.22,3.42,.1,1.2,.32,2.57,.04,3.86-.01,1.3-.06,2.59-.15,3.89-.25,.66-.05,1.46-.39,1.94-.13,1.11,.61,2.2,.39,3.31,.35,1.12-.04,2.24-.21,3.36-.23,1.18-.02,2.36,.09,3.53,.11,1.15,.02,2.3,0,3.59,0-.05-1.08-.14-2-.14-2.92,0-1.36,.07-2.73,.07-4.09,0-.52-.15-1.04-.15-1.55,0-.97,.22-1.97,.03-2.89-.28-1.39,.12-2.71,.13-4.07,0-1.31,.71-2.81,.26-3.89-.81-1.96,.25-3.84-.33-5.74-.3-.97,0-2.12-.02-3.18-.04-1.51,.58-2.99,.14-4.53-.21-.72-.54-1.64-.28-2.23,.76-1.7-.21-3.43,.31-5.09,.04-.13-.09-.3-.1-.45-.04-.63-.08-1.26-.09-1.89-.01-1.32,0-2.65,0-4,.05-.48,.14-1.02,.15-1.57,.02-.84-.04-1.69-.03-2.53,0-.71,.07-1.43,.07-2.14,0-.3-.12-.61-.13-.91-.03-.89,.21-1.88-.11-2.64-.63-1.49,.17-2.88,.03-4.35-.18-1.83,.4-3.71,.44-5.58,.03-1.33-.3-2.67-.46-4.01-.02,0-.22,.03-.3,.05Z"/></g></g></svg>